<?xml version="1.0" encoding="UTF-8" standalone="no"?>
<svg width="175px" height="175px" viewBox="0 0 175 175" version="1.1" xmlns="http://www.w3.org/2000/svg" xmlns:xlink="http://www.w3.org/1999/xlink">
    <!-- Generator: Sketch 3.8.3 (29802) - http://www.bohemiancoding.com/sketch -->
    <title>network-updated</title>
    <desc>Created with Sketch.</desc>
    <defs>
        <path d="M86.470456,172.134039 C133.851076,172.134039 172.260658,133.71863 172.260658,86.3308211 C172.260658,38.9430123 133.851076,0.527603001 86.470456,0.527603001 C39.0898358,0.527603001 0.68025409,38.9430123 0.68025409,86.3308211 C0.68025409,133.71863 39.0898358,172.134039 86.470456,172.134039 Z" id="path-1"></path>
        <mask id="mask-3" maskContentUnits="userSpaceOnUse" maskUnits="objectBoundingBox" x="-1" y="-1" width="173.580404" height="173.606436">
            <rect x="-0.31974591" y="-0.472396999" width="173.580404" height="173.606436" fill="white"></rect>
            <use xlink:href="#path-1" fill="black"></use>
        </mask>
    </defs>
    <g id="Page-1" stroke="none" stroke-width="1" fill="none" fill-rule="evenodd">
        <g id="Industry-Leading-Price-&amp;-Performance-Copy-3" transform="translate(-578.000000, -143.000000)">
            <g id="Global-Network" transform="translate(431.000000, 291.000000)" stroke-linecap="round" stroke="#FFFFFF" stroke-width="3">
                <g id="Dots" transform="translate(0.139673, 0.792914)">
                    <g id="Group-3" transform="translate(0.875212, 0.471296)">
                        <path d="M36.1612044,126.01066 C24.202262,123.052878 42.8958923,78.9974731 73.7804319,55.8979423 C104.664971,32.7984114 171.170761,20.2858844 160.581777,38.0547542" id="Path-2513-Copy-3" transform="translate(97.111647, 77.829622) rotate(-322.000000) translate(-97.111647, -77.829622) "></path>
                    </g>
                </g>
            </g>
            <g id="World-Copy-3" transform="translate(579.000000, 144.000000)">
                <text id="192.168.0.1" font-family="Roboto-Regular, Roboto" font-size="9.58627873" font-weight="normal" fill="#222222">
                    <tspan x="20.9718391" y="35.9790227">192.168.0.1</tspan>
                </text>
                <mask id="mask-2" fill="white">
                    <use xlink:href="#path-1"></use>
                </mask>
                <g id="Mask">
                    <use fill="#C4DFFB" fill-rule="evenodd" xlink:href="#path-1"></use>
                    <use stroke="#FFFFFF" mask="url(#mask-3)" stroke-width="2" xlink:href="#path-1"></use>
                </g>
                <path d="M50.7448637,0.355014179 C50.7448637,0.355014179 60.4651906,-2.30006289 53.395862,7.43521872 C46.3265333,17.1705003 47.2101991,28.6758323 63.999855,12.7453721 C69.9614268,7.08887839 77.2548465,12.7453721 86.9751734,7.43521872 C96.6955003,2.12506531 113.485156,10.0902954 113.485156,10.0902954 L109.066825,15.4004488 C109.066825,15.4004488 123.496462,26.7508011 125.856481,27.7908068 C128.216499,28.8308124 131.69168,27.8058426 131.158477,25.1357301 C130.625275,22.4656175 123.20855,20.2634805 124.089148,18.9405511 C124.969747,17.6176217 130.660105,17.2119503 134.693141,19.8255767 C138.726178,22.4392031 134.453254,25.1357301 137.34414,30.4458835 C140.235026,35.7560369 143.3608,40.5584036 144.413469,43.721267 C145.717243,47.6386081 144.009579,53.4565482 145.537023,57.8816761 C146.20532,59.8177872 148.597734,63.2371838 152.606351,71.1570596 C156.614969,79.0769354 156.343148,87.0875196 160.319458,87.0875198 C163.079725,87.08752 165.187478,76.7729333 168.512341,73.8121363 C173.702796,69.1900258 179.760112,71.1570596 179.760112,71.1570596 L155.901127,2.12506531 L104.648495,-12.9203693 L53.395862,-12.9203693 L50.7448637,0.355014179 Z" id="Path-5851" fill="#ADCFF2" opacity="0.700000048" mask="url(#mask-2)"></path>
                <path d="M53.4112263,49.9013368 C53.4112263,49.9013368 56.9458907,40.1660556 49.876562,35.7409277 C42.8072334,31.3157999 61.2805105,21.2451611 62.2478872,25.1206209 C63.2152638,28.9960807 71.084549,39.2810306 76.3865445,41.9361067 C81.68854,44.5911828 82.572207,37.5109789 82.572207,37.5109789 C82.572207,37.5109789 95.8271975,43.7061567 83.4558731,49.9013368 C71.0845487,56.0965169 87.8742035,60.5216436 87.8742035,60.5216436 C87.8742035,60.5216436 87.8742045,65.8317993 89.6415357,65.831797 C91.4088669,65.8317947 92.2925339,49.9013362 92.2925339,45.476209 C92.2925339,41.0510817 85.2232063,37.5109795 88.7578696,37.5109789 C92.2925329,37.5109783 101.129192,44.591184 101.129195,46.3612345 C101.129197,48.1312851 96.7108643,49.8862276 97.5945304,53.4414391 C98.4781965,56.9966505 115.267856,64.0617448 115.267852,67.6018482 C115.267848,71.1419515 109.082187,66.7168249 107.314857,66.7168226 C105.547528,66.7168203 106.431191,70.2569249 106.431191,70.2569249 C106.431191,70.2569249 111.733189,74.6820516 102.012861,76.4521038 C102.012861,76.4521038 88.7578672,87.0724129 90.5252018,93.2675896 C92.2925363,99.4627663 87.8742035,104.788031 85.2232053,97.6927175 C82.572207,90.5974038 75.5028777,94.1526175 71.9682141,96.8076919 C68.4335504,99.4627663 67.5498846,110.968103 75.5028784,107.427999 C83.4558721,103.887894 80.0616392,110.238831 83.4558731,113.638287 C86.850107,117.037743 88.7578706,112.738154 86.9905374,118.933331 C85.2232043,125.128508 98.4781965,121.588408 98.4781965,121.588408 L98.4781965,126.013536 C98.4781965,126.013536 90.5252001,130.438663 79.9212078,118.933329 C75.5028791,114.508201 54.2948925,110.983209 52.5275603,87.9725454 C52.5275603,87.9725431 48.9928961,90.6125129 51.6438942,96.8076896 C54.2948923,103.002866 46.3418977,96.8076885 46.3418977,86.1873828 C46.3418977,75.5670771 48.1092299,64.0617448 51.6438942,60.5216436 L53.4112263,49.9013368 Z" id="Path-5849" fill="#ADCFF2" mask="url(#mask-2)"></path>
                <path d="M91.3996948,131.338798 C91.3996948,131.338798 84.3303669,120.718491 103.771021,120.718491 C106.739391,120.718491 111.602455,117.993483 113.612782,118.063415 C116.604192,118.167474 117.50986,120.237876 119.02704,120.718491 C123.167867,122.03023 124.3422,122.488543 127.630004,122.488543 C132.932001,122.488543 140.651299,122.488542 141.768661,126.028645 C142.886024,129.568747 141.118692,130.453773 134.933029,140.189054 C128.747367,149.924335 126.746338,164.96977 126.746338,164.96977 L103.77102,171.164949 L98.4690235,168.509872 L101.120022,149.924335 C101.120022,149.924335 91.3996948,140.189054 86.9813644,140.189054 C82.563034,140.189054 87.8650306,134.8789 87.8650305,133.108849 C87.8650304,131.338798 91.3996948,131.338798 91.3996948,131.338798 Z" id="Path-5850" fill="#ADCFF2" mask="url(#mask-2)"></path>
                <g id="Group-2" mask="url(#mask-2)">
                    <g transform="translate(-10.000000, -37.000000)">
                        <g id="Dots" transform="translate(37.173843, 46.169323)">
                            <ellipse id="Oval-1179-Copy-31" fill="#FFFFFF" cx="64.6314365" cy="32.2085974" rx="7.34747248" ry="7.37690115"></ellipse>
                            <ellipse id="Oval-1179-Copy-31" fill="#FFFFFF" cx="120.534463" cy="106.704346" rx="7.34747248" ry="7.37690115"></ellipse>
                            <ellipse id="Oval-1179-Copy-10" fill="#FFFFFF" cx="66.6642738" cy="87.3150418" rx="7.34747248" ry="7.37690115"></ellipse>
                            <ellipse id="Oval-1179-Copy-33" fill="#FFFFFF" cx="18.4296247" cy="8.00254218" rx="7.34747248" ry="7.37690115"></ellipse>
                            <ellipse id="Oval-1179-Copy-31" fill="#FFFFFF" cx="101.222509" cy="13.8397826" rx="7.34747248" ry="7.37690115"></ellipse>
                            <ellipse id="Oval-1179-Copy-10" fill="#FFFFFF" cx="60.5657618" cy="150.585404" rx="7.34747248" ry="7.37690115"></ellipse>
                            <ellipse id="Oval-1179-Copy-10" fill="#FFFFFF" cx="7.71199087" cy="87.3150418" rx="7.34747248" ry="7.37690115"></ellipse>
                            <path d="M7.71199087,94.691943 C11.7698879,94.691943 15.0594633,91.3891918 15.0594633,87.3150418 C15.0594633,83.2408918 11.7698879,79.9381407 7.71199087,79.9381407 C3.65409387,79.9381407 0.364518386,83.2408918 0.364518386,87.3150418 C0.364518386,91.3891918 3.65409387,94.691943 7.71199087,94.691943 Z" id="Oval-1179-Copy-31" fill="#FFFFFF"></path>
                        </g>
                        <g id="lines" transform="translate(0.881081, 0.468217)" stroke-linecap="round">
                            <path d="M25.3953621,178.255696 C3.0341513,173.153249 35.5595484,127.23121 71.1342023,100.698478 C106.708856,74.1657452 180.907419,56.8174198 168.710395,77.2272139" id="Path-2513" stroke="#FFFFFF" stroke-width="3" transform="translate(94.047570, 123.267276) rotate(-10.000000) translate(-94.047570, -123.267276) "></path>
                            <path d="M52.2816725,198.598637 C29.9204617,193.49619 62.4458588,147.574151 98.0205127,121.041419 C133.595167,94.5086865 207.793729,77.160361 195.596706,97.5701552" id="Path-2513-Copy-2" stroke="#FFFFFF" stroke-width="3" transform="translate(120.933880, 143.610217) scale(-1, -1) rotate(-10.000000) translate(-120.933880, -143.610217) "></path>
                            <path d="M29.4610368,219.075284 C7.09982599,213.972837 39.6252231,168.050799 75.199877,141.518066 C110.774531,114.985334 184.973094,97.6370083 172.77607,118.046802" id="Path-2513" stroke="#FFFFFF" stroke-width="3" transform="translate(98.113244, 164.086864) rotate(-318.000000) translate(-98.113244, -164.086864) "></path>
                            <path d="M36.694234,128.509192 C24.5590123,125.516235 43.5281937,80.936919 74.8679829,57.5626862 C106.207772,34.1884534 173.693882,21.5271262 162.948812,39.5073052" id="Path-2513-Copy-3" stroke="#FFFFFF" stroke-width="3" transform="translate(98.543109, 79.755180) rotate(-322.000000) translate(-98.543109, -79.755180) "></path>
                            <path d="M24.465777,166.41536 C1.76757569,169.483479 34.6299633,115.390874 70.2046172,88.8581415 C105.779271,62.325409 179.977834,44.9770836 167.78081,65.3868777" id="Path-2513-Copy" stroke="#FFFFFF" stroke-width="3" transform="translate(93.049199, 111.489540) rotate(-334.000000) translate(-93.049199, -111.489540) "></path>
                        </g>
                    </g>
                </g>
            </g>
        </g>
    </g>
</svg>