<?xml version="1.0" standalone="no"?>
<!DOCTYPE svg PUBLIC "-//W3C//DTD SVG 20010904//EN"
 "http://www.w3.org/TR/2001/REC-SVG-20010904/DTD/svg10.dtd">
<svg version="1.0" xmlns="http://www.w3.org/2000/svg"
 width="1024.000000pt" height="1024.000000pt" viewBox="0 0 1024.000000 1024.000000"
 preserveAspectRatio="xMidYMid meet">
<metadata>
Created by potrace 1.14, written by Peter Selinger 2001-2017
</metadata>
<g transform="translate(0.000000,1024.000000) scale(0.100000,-0.100000)"
fill="#8e8e93" stroke="none" stroke-width="100">
<path d="M4775 10155 c-32 -20 -91 -61 -129 -92 -92 -74 -4429 -4411 -4483
-4483 -23 -30 -58 -82 -77 -114 l-36 -60 0 -284 0 -284 32 -62 c47 -89 184
-222 273 -265 136 -67 168 -71 562 -71 l353 0 0 -1928 c0 -1887 0 -1930 20
-2006 31 -122 82 -208 180 -306 53 -53 108 -98 146 -118 l62 -32 1111 0 1111
0 2 1628 c3 1551 4 1630 21 1682 73 216 229 368 432 420 74 19 111 20 765 20
651 0 691 -1 764 -20 205 -52 360 -203 433 -420 17 -52 18 -131 21 -1682 l2
-1628 1111 0 1111 0 62 32 c38 20 93 65 146 118 98 98 149 184 180 306 20 76
20 119 20 2005 l0 1928 378 3 377 3 82 32 c45 17 107 48 137 68 73 48 175 159
214 233 l32 60 0 284 0 283 -37 64 c-63 107 -147 197 -675 726 l-508 511 0
1160 c0 1123 -1 1163 -20 1238 -59 232 -256 428 -484 481 -90 22 -903 21 -994
0 -134 -32 -277 -128 -365 -245 -104 -138 -137 -255 -137 -486 l0 -147 -652
649 c-649 645 -740 731 -853 799 l-59 35 -286 0 -286 0 -59 -35z m641 -266
c38 -29 267 -251 509 -494 242 -243 548 -547 680 -676 l240 -234 61 -13 c135
-27 257 39 295 159 6 19 14 120 19 224 7 182 9 193 37 256 39 86 125 171 213
213 l65 31 435 0 435 0 68 -32 c87 -41 178 -132 218 -217 l29 -61 0 -1158 c0
-1303 -3 -1254 70 -1346 21 -26 263 -273 537 -547 474 -474 575 -580 602 -631
18 -35 15 -456 -3 -492 -26 -49 -129 -135 -192 -161 -57 -23 -70 -24 -439 -31
-209 -3 -393 -10 -410 -14 -16 -5 -52 -31 -80 -59 -92 -93 -85 79 -85 -2121
l0 -1921 -34 -69 c-32 -66 -79 -120 -150 -173 l-29 -22 -963 0 -964 0 0 1494
0 1494 -29 114 c-32 127 -60 188 -134 296 -115 167 -285 278 -503 327 l-109
25 -685 0 -685 0 -109 -25 c-231 -52 -395 -164 -520 -354 -73 -111 -88 -146
-122 -285 l-24 -101 0 -1492 0 -1493 -964 0 -963 0 -29 22 c-71 53 -118 107
-150 173 l-34 69 0 1921 c0 2200 7 2028 -85 2121 -28 28 -64 54 -80 59 -17 4
-201 11 -410 14 -454 8 -451 8 -573 126 l-72 71 0 232 c0 155 4 241 11 255 7
12 32 47 58 77 84 101 4385 4395 4455 4448 l69 52 227 0 227 0 69 -51z"/>
</g>
</svg>
