<?xml version="1.0" standalone="no"?>
<!DOCTYPE svg PUBLIC "-//W3C//DTD SVG 20010904//EN"
 "http://www.w3.org/TR/2001/REC-SVG-20010904/DTD/svg10.dtd">
<svg version="1.0" xmlns="http://www.w3.org/2000/svg"
 width="1024.000000pt" height="371.000000pt" viewBox="0 0 1024.000000 371.000000"
 preserveAspectRatio="xMidYMid meet">
<metadata>
Created by potrace 1.14, written by Peter Selinger 2001-2017
</metadata>
<g transform="translate(0.000000,371.000000) scale(0.100000,-0.100000)"
fill="#0072f2" stroke="none">
<path d="M1595 3110 c-616 -97 -1053 -626 -1022 -1235 16 -303 135 -573 347
-785 169 -169 385 -284 625 -331 91 -18 339 -18 430 0 432 85 782 392 914 799
44 136 56 214 56 372 0 158 -12 236 -56 372 -96 297 -319 553 -606 697 -76 38
-187 76 -285 97 -87 19 -319 27 -403 14z"/>
<path d="M4955 3110 c-616 -97 -1053 -626 -1022 -1235 16 -303 135 -573 347
-785 169 -169 385 -284 625 -331 91 -18 339 -18 430 0 432 85 782 392 914 799
44 136 56 214 56 372 0 158 -12 236 -56 372 -96 297 -319 553 -606 697 -76 38
-187 76 -285 97 -87 19 -319 27 -403 14z"/>
<path d="M8315 3110 c-616 -97 -1053 -626 -1022 -1235 16 -303 135 -573 347
-785 169 -169 385 -284 625 -331 91 -18 339 -18 430 0 432 85 782 392 914 799
44 136 56 214 56 372 0 158 -12 236 -56 372 -96 297 -319 553 -606 697 -76 38
-187 76 -285 97 -87 19 -319 27 -403 14z"/>
</g>
</svg>
