<?xml version="1.0" standalone="no"?>
<!DOCTYPE svg PUBLIC "-//W3C//DTD SVG 20010904//EN"
 "http://www.w3.org/TR/2001/REC-SVG-20010904/DTD/svg10.dtd">
<svg version="1.0" xmlns="http://www.w3.org/2000/svg"
 width="256.000000pt" height="256.000000pt" viewBox="0 0 256.000000 256.000000"
 preserveAspectRatio="xMidYMid meet">
<metadata>
Created by potrace 1.14, written by Peter Selinger 2001-2017
</metadata>
<g transform="translate(0.000000,256.000000) scale(0.100000,-0.100000)"
fill="#0072f2" stroke="none">
<path d="M192 2468 c-35 -121 -45 -188 -45 -293 1 -212 79 -367 243 -475 53
-35 164 -82 236 -100 49 -13 52 -12 113 20 37 20 86 59 121 97 58 62 60 65 60
118 0 91 -33 160 -114 241 -60 60 -90 80 -191 129 -66 32 -144 73 -172 91 -69
44 -163 140 -193 198 -14 25 -28 46 -31 46 -3 0 -15 -33 -27 -72z"/>
<path d="M1806 2409 c-79 -13 -193 -75 -257 -138 -99 -99 -138 -201 -146 -376
-6 -131 -17 -165 -74 -230 -31 -35 -31 -36 -14 -62 20 -29 222 -255 262 -291
l26 -23 46 44 46 44 140 16 c238 28 326 59 422 150 71 67 117 145 142 241 28
107 27 180 -5 274 -2 8 -68 -50 -165 -149 -181 -181 -177 -180 -272 -136 -81
37 -141 98 -181 180 -25 52 -34 80 -29 100 3 18 56 79 154 177 82 82 149 154
149 159 0 25 -146 37 -244 20z"/>
<path d="M955 1618 c-27 -28 -73 -66 -103 -85 -29 -19 -52 -37 -50 -41 92
-196 156 -275 419 -518 472 -436 1199 -1023 1199 -968 0 21 -133 220 -284 424
-321 434 -789 995 -930 1114 -44 37 -183 126 -197 126 -2 0 -26 -23 -54 -52z"/>
<path d="M503 838 c-368 -370 -363 -363 -363 -471 0 -28 8 -64 19 -86 22 -41
83 -101 130 -125 37 -20 121 -21 164 -2 18 8 187 170 380 363 l348 349 -23 26
c-32 36 -301 288 -308 288 -3 0 -159 -154 -347 -342z m-64 -352 c46 -24 64
-87 39 -141 -32 -70 -148 -72 -184 -4 -50 98 47 195 145 145z"/>
</g>
</svg>
